{
    "asset": {
        "generator": "Khronos glTF Blender I/O v1.5.17",
        "version": "2.0"
    },
    "extensionsUsed": [
        "KHR_audio_emitter",
        "KHR_materials_unlit"
    ],
    "extensions": {
        "KHR_audio_emitter": {
            "audio": [
                {
                    "name": "ambient",
                    "uri": "./ambient.mp3"
                },
                {
                    "name": "talking",
                    "uri": "./talking.mp3"
                }
            ],
            "sources": [
                {
                    "audio": 0,
                    "autoplay": true,
                    "loop": true
                },
                {
                    "audio": 1,
                    "autoplay": true,
                    "loop": true
                }
            ],
            "emitters": [
                {
                    "name": "ambient emitter",
                    "type": "global",
                    "sources": [0]
                },
                {
                    "name": "talking emitter",
                    "type": "positional",
                    "gain": 0.8,
                    "positional": {
                        "maxDistance": 10,
                        "refDistance": 1,
                        "rolloffFactor": 0.8
                    },
                    "sources": [1]
                }
            ]
        }
    },
    "scene": 0,
    "scenes": [
        {
            "name": "Scene",
            "nodes": [
                0,
                1
            ],
            "extensions": {
                "KHR_audio_emitter": {
                    "emitters": [0]
                }
            }
        }
    ],
    "nodes": [
        {
            "mesh": 0,
            "name": "PlaneMesh",
            "scale": [
                10,
                10,
                10
            ]
        },
        {
            "children": [
                2
            ],
            "name": "Rotation"
        },
        {
            "children": [
                3
            ],
            "mesh": 1,
            "name": "TalkingSphere",
            "translation": [
                5.605831146240234,
                1.0160478353500366,
                0
            ],
            "extensions": {
                "KHR_audio_emitter": {
                    "emitter": 1
                }
            }
        },
        {
            "mesh": 1,
            "name": "TalkingSphereMesh",
            "scale": [
                0.5,
                0.5,
                0.5
            ]
        }
    ],
    "animations": [
        {
            "channels": [
                {
                    "sampler": 0,
                    "target": {
                        "node": 2,
                        "path": "translation"
                    }
                },
                {
                    "sampler": 1,
                    "target": {
                        "node": 2,
                        "path": "rotation"
                    }
                },
                {
                    "sampler": 2,
                    "target": {
                        "node": 3,
                        "path": "scale"
                    }
                }
            ],
            "name": "SphereAction",
            "samplers": [
                {
                    "input": 8,
                    "interpolation": "STEP",
                    "output": 9
                },
                {
                    "input": 8,
                    "interpolation": "STEP",
                    "output": 10
                },
                {
                    "input": 8,
                    "interpolation": "STEP",
                    "output": 11
                }
            ]
        },
        {
            "channels": [
                {
                    "sampler": 0,
                    "target": {
                        "node": 1,
                        "path": "rotation"
                    }
                }
            ],
            "name": "RotationAction",
            "samplers": [
                {
                    "input": 12,
                    "interpolation": "LINEAR",
                    "output": 13
                }
            ]
        }
    ],
    "materials": [
        {
            "doubleSided": true,
            "extensions": {
                "KHR_materials_unlit": {}
            },
            "name": "Material.002",
            "pbrMetallicRoughness": {
                "baseColorFactor": [
                    0.800000011920929,
                    0.800000011920929,
                    0.800000011920929,
                    1
                ],
                "metallicFactor": 0,
                "roughnessFactor": 0.9
            }
        },
        {
            "doubleSided": true,
            "extensions": {
                "KHR_materials_unlit": {}
            },
            "name": "Material.001",
            "pbrMetallicRoughness": {
                "baseColorFactor": [
                    0.0016245946753770113,
                    0,
                    0.8000000715255737,
                    1
                ],
                "metallicFactor": 0,
                "roughnessFactor": 0.9
            }
        }
    ],
    "meshes": [
        {
            "name": "Plane",
            "primitives": [
                {
                    "attributes": {
                        "POSITION": 0,
                        "NORMAL": 1,
                        "TEXCOORD_0": 2
                    },
                    "indices": 3,
                    "material": 0
                }
            ]
        },
        {
            "name": "Sphere",
            "primitives": [
                {
                    "attributes": {
                        "POSITION": 4,
                        "NORMAL": 5,
                        "TEXCOORD_0": 6
                    },
                    "indices": 7,
                    "material": 1
                }
            ]
        }
    ],
    "accessors": [
        {
            "bufferView": 0,
            "componentType": 5126,
            "count": 4,
            "max": [
                1,
                0,
                1
            ],
            "min": [
                -1,
                0,
                -1
            ],
            "type": "VEC3"
        },
        {
            "bufferView": 1,
            "componentType": 5126,
            "count": 4,
            "type": "VEC3"
        },
        {
            "bufferView": 2,
            "componentType": 5126,
            "count": 4,
            "type": "VEC2"
        },
        {
            "bufferView": 3,
            "componentType": 5123,
            "count": 6,
            "type": "SCALAR"
        },
        {
            "bufferView": 4,
            "componentType": 5126,
            "count": 1984,
            "max": [
                1.000000238418579,
                1,
                1.0000003576278687
            ],
            "min": [
                -0.9999998211860657,
                -1,
                -1
            ],
            "type": "VEC3"
        },
        {
            "bufferView": 5,
            "componentType": 5126,
            "count": 1984,
            "type": "VEC3"
        },
        {
            "bufferView": 6,
            "componentType": 5126,
            "count": 1984,
            "type": "VEC2"
        },
        {
            "bufferView": 7,
            "componentType": 5123,
            "count": 2880,
            "type": "SCALAR"
        },
        {
            "bufferView": 8,
            "componentType": 5126,
            "count": 1,
            "max": [
                0
            ],
            "min": [
                0
            ],
            "type": "SCALAR"
        },
        {
            "bufferView": 9,
            "componentType": 5126,
            "count": 1,
            "type": "VEC3"
        },
        {
            "bufferView": 10,
            "componentType": 5126,
            "count": 1,
            "type": "VEC4"
        },
        {
            "bufferView": 11,
            "componentType": 5126,
            "count": 1,
            "type": "VEC3"
        },
        {
            "bufferView": 12,
            "componentType": 5126,
            "count": 121,
            "max": [
                5
            ],
            "min": [
                0
            ],
            "type": "SCALAR"
        },
        {
            "bufferView": 13,
            "componentType": 5126,
            "count": 121,
            "type": "VEC4"
        }
    ],
    "bufferViews": [
        {
            "buffer": 0,
            "byteLength": 48,
            "byteOffset": 0
        },
        {
            "buffer": 0,
            "byteLength": 48,
            "byteOffset": 48
        },
        {
            "buffer": 0,
            "byteLength": 32,
            "byteOffset": 96
        },
        {
            "buffer": 0,
            "byteLength": 12,
            "byteOffset": 128
        },
        {
            "buffer": 0,
            "byteLength": 23808,
            "byteOffset": 140
        },
        {
            "buffer": 0,
            "byteLength": 23808,
            "byteOffset": 23948
        },
        {
            "buffer": 0,
            "byteLength": 15872,
            "byteOffset": 47756
        },
        {
            "buffer": 0,
            "byteLength": 5760,
            "byteOffset": 63628
        },
        {
            "buffer": 0,
            "byteLength": 4,
            "byteOffset": 69388
        },
        {
            "buffer": 0,
            "byteLength": 12,
            "byteOffset": 69392
        },
        {
            "buffer": 0,
            "byteLength": 16,
            "byteOffset": 69404
        },
        {
            "buffer": 0,
            "byteLength": 12,
            "byteOffset": 69420
        },
        {
            "buffer": 0,
            "byteLength": 484,
            "byteOffset": 69432
        },
        {
            "buffer": 0,
            "byteLength": 1936,
            "byteOffset": 69916
        }
    ],
    "buffers": [
        {
            "byteLength": 71852,
            "uri": "talking_sphere.bin"
        }
    ]
}
